<svg width="100" height="100" viewBox="0 0 100 100" fill="none" xmlns="http://www.w3.org/2000/svg">
<path d="M51.4531 4.77655C48.8906 5.99843 46.1406 10.3078 46.1406 16.3015C46.1406 32.3078 64.3016 40.1078 64.3016 54.1359C64.3016 54.1359 64.3594 62.4594 59.8203 64.2062V60.8891C59.8203 50.7609 40.1484 38.3047 40.1484 27.1859V22.8203C37.5859 24.0422 34.8359 28.4672 34.8359 34.4031C34.8359 49.7109 52.9969 56.6375 52.9969 72.2375C52.9969 72.2375 52.9969 78.7562 48.9812 80.8515C49.0984 80.5015 49.0984 80.0953 49.0984 79.7453C49.0984 79.0469 48.9812 78.4641 48.9812 78.4641C48.575 71.3047 29.9469 53.4953 29.9469 47.9047C13.5625 52.3906 0 60.5969 0 70.725C0 84.2875 22.2344 95.1562 49.5937 95.1562C49.7687 95.1562 49.8844 95.2734 50.0594 95.1562C77.7062 95.1141 100 83.8219 100 70.2031C100 60.075 87.4844 51.4016 69.7906 47.7344C70.3141 46.3953 70.3141 45.2312 70.3141 45.2312C70.3141 32.5437 51.4547 20.2 51.4547 9.14218L51.4531 4.77655Z" fill="white"/>
</svg>
